<?xml version="1.0" encoding="UTF-8"?><svg id="Layer_2" xmlns="http://www.w3.org/2000/svg" viewBox="0 0 348 348"><defs><style>.cls-1{fill:#220901;}.cls-1,.cls-2,.cls-3{stroke-width:0px;}.cls-2{fill:#fff;}.cls-3{fill:#fd410d;}</style></defs><g id="Layer_1-2"><rect class="cls-2" width="348" height="348" transform="translate(348 348) rotate(180)"/><path class="cls-3" d="m308.4,141.75c-9.75,2.1-15.15,3.72-25.59,5.29.05.01.38,17,.56,16.89-1.27-4.55-2.65-9.16-4.12-13.75-2.09-6.49-4.42-13.1-6.93-19.64-2.51-6.54-5.24-13.15-8.13-19.63-1.37-3.09-2.79-6.19-4.26-9.28-2.1-4.44-6.54-7.53-11.7-8.17-4.77-.58-10.56-1.27-14.39-1.64-19.43-1.84-39.51-2.77-59.66-2.77h-.38c-10.07,0-20.13.23-30.1.7-9.97.46-19.84,1.16-29.56,2.08-3.8.36-9.51,1.01-14.24,1.57-5.2.61-9.66,3.72-11.77,8.19-1.53,3.22-3.23,6.84-4.33,9.33-2.88,6.49-5.62,13.09-8.12,19.63-2.51,6.55-4.84,13.16-6.93,19.64-1.48,4.59-2.85,9.19-4.12,13.75.07.11.51-16.88.56-16.89-10.43-1.57-15.84-3.19-25.59-5.29-3.92,16.71,12.06,26.21,23.38,28.28-.01.06-.03.11-.04.16l-.02.09c-4.17,16.15-6.97,31.97-8.32,47.03-.51,5.69-.82,11.34-.92,16.78-.11,6.43.06,12.74.53,18.75h.05c.44,3.42,3.89,6.11,8.05,6.11h21.32c4.46,0,8.1-3.07,8.1-6.85v-11.38c26.3,3.51,53.82,5.29,81.79,5.29h.99c27.97,0,55.49-1.78,81.8-5.29v11.38c0,3.78,3.63,6.85,8.1,6.85h21.31c4.17,0,7.61-2.68,8.05-6.11h.05c.46-6.01.64-12.31.53-18.75-.1-5.44-.41-11.09-.92-16.78-1.35-15.06-4.15-30.89-8.31-47.04l-.03-.09s-.02-.1-.04-.15c11.33-2.06,27.3-11.56,23.38-28.28Z"/><path class="cls-2" d="m110.84,110.03c20.51-2.17,41.7-3.27,63.04-3.27h.24c21.35,0,42.53,1.1,63.04,3.27,2.6.28,4.85,1.92,5.85,4.3,5.81,13.87,10.87,27.87,15.04,41.68v.03c.21.68.42,1.36.62,2.03.46,1.56.9,3.09,1.31,4.54v.06l.03.02c.85,3.02,1.67,6.06,2.45,9.08,1.03,4.03-1.72,8.06-5.91,8.65-.02,0-.05.01-.08.01-10.68,1.51-21.55,2.72-32.57,3.63l3.84,15.54-23.8-14.25c-9.86.48-19.81.72-29.82.72h-.24c-28.17,0-55.87-1.9-82.35-5.65-.03,0-.06,0-.08-.01-4.19-.59-6.94-4.63-5.91-8.65.77-3.03,1.59-6.07,2.45-9.08l.02-.02v-.06c.41-1.45.85-2.98,1.32-4.54.2-.68.4-1.36.61-2.03v-.03c4.18-13.81,9.24-27.81,15.05-41.68,1-2.38,3.24-4.02,5.85-4.3Z"/><path class="cls-2" d="m79.33,205.46c1.9-5.47,6.61-9.51,12.3-10.54.95-.17,1.92-.26,2.88-.26,8.86,0,16.07,7.21,16.07,16.07s-7.21,16.07-16.07,16.07c-.96,0-1.93-.09-2.88-.26-6.95-1.25-12.32-7.03-13.09-14.05-.06-.58-.1-1.17-.1-1.75,0-1.81.3-3.58.88-5.27Z"/><path class="cls-2" d="m269.01,212.48h0c-.77,7.02-6.14,12.8-13.09,14.05-.95.18-1.92.26-2.88.26-8.86,0-16.07-7.21-16.07-16.07s7.21-16.07,16.07-16.07c.96,0,1.93.09,2.88.26,5.69,1.03,10.41,5.08,12.3,10.54.58,1.69.88,3.46.88,5.27,0,.58-.03,1.17-.1,1.75Z"/><path class="cls-1" d="m116.42,158.84c-.78.21-1.8.32-3.05.32-1.8,0-3.13-.53-4.01-1.6-.88-1.06-1.31-2.67-1.31-4.82v-18.86c0-.26.15-.39.46-.39h5.46c.31,0,.46.13.46.39v18.3c0,.76.08,1.31.25,1.65.16.34.45.51.85.51h.6c.21,0,.33.12.36.36l.49,3.05c.05.28.07.51.07.67,0,.1-.05.17-.14.23-.1.06-.26.12-.49.19h0Z"/><path class="cls-1" d="m126.21,159.17c-2.93,0-5.14-.77-6.63-2.3-1.49-1.54-2.23-3.82-2.23-6.84,0-3.21.79-5.69,2.38-7.45,1.58-1.75,3.8-2.62,6.67-2.62s5.14.77,6.63,2.3,2.23,3.82,2.23,6.84c0,3.24-.79,5.73-2.38,7.46-1.58,1.74-3.8,2.61-6.67,2.61h0Zm.11-5.11c.85,0,1.48-.34,1.88-1.03.4-.69.6-1.75.6-3.19,0-1.7-.19-2.93-.58-3.67-.39-.75-1.02-1.12-1.9-1.12s-1.48.34-1.9,1.03c-.41.69-.62,1.75-.62,3.19,0,1.68.19,2.9.58,3.65s1.03,1.14,1.93,1.14h0Z"/><path class="cls-1" d="m150.21,157.53c.05.17.08.3.09.39.01.1.02.17.02.21,0,.12-.02.21-.07.28-.05.07-.15.13-.32.18-1.35.38-2.86.57-4.54.57-2.25,0-3.95-.49-5.11-1.45-1.16-.97-1.74-2.39-1.74-4.25v-8.22h-2.55c-.31,0-.46-.13-.46-.39v-4.15c0-.26.15-.39.46-.39h2.55v-3.76c0-.26.15-.4.46-.42l4.93-.67c.14-.02.27-.04.37-.05s.19-.02.27-.02c.24,0,.36.13.36.39v4.54h4.75c.31,0,.46.13.46.39v4.15c0,.26-.15.39-.46.39h-4.75v6.13c0,.97.14,1.66.43,2.08.28.41.77.62,1.45.62.33,0,.66-.02.99-.07.33-.05.62-.09.85-.14.24-.05.4-.07.49-.07.21,0,.33.12.36.36l.71,3.4h0Z"/><path class="cls-3" d="m154.08,155.87c.07-.26.2-.39.39-.39.09,0,.23.03.41.09s.38.11.62.16c1.51.38,2.77.57,3.76.57s1.68-.18,2.21-.55c.53-.37.8-.87.8-1.51s-.18-1.2-.55-1.61-1.02-.84-1.97-1.29l-1.99-.96c-1.3-.64-2.24-1.35-2.82-2.13s-.87-1.75-.87-2.91c0-1.56.55-2.8,1.67-3.71,1.11-.91,2.62-1.36,4.54-1.36,1.49,0,2.97.2,4.43.6.21.07.32.2.32.39,0,.1-.01.19-.03.28-.02.1-.05.19-.07.28l-.36,1.45c-.05.17-.1.27-.16.32-.06.05-.16.07-.3.07-.05,0-.11,0-.18-.02-.07-.01-.17-.03-.28-.05-.26-.05-.58-.11-.97-.19s-.82-.15-1.28-.21-.94-.09-1.44-.09c-.76,0-1.35.17-1.79.51-.44.34-.66.81-.66,1.4s.18,1.05.53,1.44.96.79,1.81,1.19l1.84.89c1.44.69,2.47,1.42,3.08,2.2.62.78.92,1.78.92,3.01,0,1.65-.58,2.97-1.74,3.93s-2.74,1.45-4.75,1.45c-.95,0-1.95-.09-3-.27-1.05-.18-1.84-.37-2.36-.58-.21-.07-.32-.19-.32-.36,0-.07.01-.15.03-.25.02-.09.05-.18.07-.25l.43-1.56h0Z"/><path class="cls-3" d="m179.28,158.81c-.31,0-.46-.13-.46-.39v-11.66c0-1.25-.22-2.16-.66-2.71-.44-.55-1.16-.83-2.18-.83-.59,0-1.25.11-1.99.34-.73.23-1.41.51-2.02.87v14c0,.26-.15.39-.46.39h-2.52c-.31,0-.46-.13-.46-.39v-24.54c0-.26.15-.39.46-.39h2.52c.31,0,.46.13.46.39v7.87c1.82-.97,3.54-1.45,5.17-1.45s2.95.45,3.81,1.36,1.29,2.23,1.29,3.95v12.8c0,.26-.15.39-.46.39h-2.52,0Z"/><path class="cls-3" d="m199.24,157.11c.09.28.14.47.14.57,0,.12-.11.23-.32.32-1.87.78-3.89,1.17-6.06,1.17-2.58,0-4.52-.78-5.83-2.34-1.31-1.56-1.97-3.86-1.97-6.91s.66-5.47,1.99-7.13c1.32-1.65,3.19-2.48,5.6-2.48,2.2,0,3.86.72,4.98,2.16,1.12,1.44,1.68,3.57,1.68,6.38,0,.49-.01.86-.03,1.08-.02.23-.08.38-.16.46s-.24.12-.48.12h-9.93c.07,1.96.49,3.41,1.26,4.34.77.93,1.94,1.4,3.53,1.4.57,0,1.23-.07,1.99-.21.75-.14,1.45-.32,2.09-.53.42-.14.69-.21.78-.21.14,0,.24.1.28.28l.46,1.52h0Zm-3.26-9.22c-.05-1.73-.36-2.96-.92-3.71-.57-.75-1.44-1.12-2.62-1.12-2.15,0-3.34,1.61-3.58,4.82h7.13Z"/><path class="cls-3" d="m202.93,158.81c-.31,0-.46-.13-.46-.39v-17.37c0-.26.15-.39.46-.39h1.88c.14,0,.25.02.32.07s.13.15.18.32l.28.92c1.21-.57,2.19-.96,2.94-1.19.75-.22,1.45-.34,2.09-.34.28,0,.49.02.6.07s.18.15.18.32c0,.07,0,.15-.02.23-.01.08-.03.18-.05.3l-.32,1.91c-.02.26-.21.39-.57.39-1.56,0-3.07.21-4.54.64v14.11c0,.26-.15.39-.46.39h-2.52Z"/><path class="cls-3" d="m213.64,168.26c-.31,0-.46-.13-.46-.39v-26.83c0-.26.15-.39.46-.39h1.88c.24,0,.4.13.49.39l.28.89c1.01-.64,1.87-1.07,2.57-1.29.7-.23,1.4-.34,2.11-.34,2.25,0,3.95.76,5.12,2.27s1.75,3.71,1.75,6.59c0,3.21-.68,5.69-2.04,7.41-1.36,1.73-3.3,2.59-5.83,2.59-.97,0-2.09-.25-3.37-.75v9.45c0,.26-.15.39-.46.39h-2.52,0Zm2.98-12.82c.49.26,1.05.47,1.65.64.6.17,1.16.25,1.68.25,1.4,0,2.46-.54,3.19-1.61.73-1.08,1.1-2.65,1.1-4.73,0-2.41-.31-4.15-.92-5.23-.62-1.08-1.62-1.61-3.01-1.61-.78.02-1.47.16-2.06.41-.59.25-1.14.53-1.63.83v11.06h0Z"/><path class="cls-3" d="m240.27,158.81c-.14,0-.24-.02-.3-.07-.06-.05-.11-.15-.16-.32l-.36-1.06c-1.61,1.21-3.33,1.81-5.18,1.81-1.51,0-2.69-.45-3.54-1.36s-1.28-2.18-1.28-3.81c0-1.84.59-3.28,1.77-4.31,1.18-1.03,2.92-1.6,5.21-1.72l2.69-.14v-1.06c0-.9-.09-1.61-.27-2.13-.18-.52-.49-.9-.92-1.14-.44-.24-1.08-.36-1.93-.36-.69,0-1.34.05-1.97.14-.63.1-1.16.19-1.61.3-.45.11-.73.16-.85.16-.26,0-.4-.12-.43-.36l-.21-1.21c-.07-.42-.11-.69-.11-.78,0-.21.12-.36.36-.42.69-.21,1.53-.38,2.54-.49,1.01-.12,2-.18,3-.18,1.99,0,3.45.41,4.38,1.24.93.83,1.4,2.13,1.4,3.9v12.98c0,.26-.15.39-.46.39h-1.77Zm-1.14-8.54l-3.19.21c-1.02.07-1.77.36-2.27.85s-.75,1.23-.75,2.2c0,1.94.8,2.91,2.41,2.91,1.23,0,2.49-.47,3.8-1.42v-4.75h0Z"/></g></svg>