<?xml version="1.0" encoding="UTF-8"?><svg id="Layer_2" xmlns="http://www.w3.org/2000/svg" viewBox="0 0 979.33 228.54"><defs><style>.cls-1{fill:#58595a;}.cls-1,.cls-2,.cls-3{stroke-width:0px;}.cls-2{fill:#231f20;}.cls-3{fill:#fff;}</style></defs><g id="Layer_1-2"><rect class="cls-3" width="979.33" height="228.54"/><path class="cls-2" d="m178.57,106.28c0,6.74-1.31,11.28-3.93,13.62-2.62,2.34-7.35,3.51-14.18,3.51h-44.78c-7.39,0-12.26-1.31-14.6-3.93-2.34-2.62-3.51-7.67-3.51-15.16l14.88-3.09v8.56h51.23v-16.56h-45.2c-6.83,0-11.53-1.17-14.11-3.51-2.57-2.34-3.86-6.88-3.86-13.62v-8c0-6.74,1.28-11.28,3.86-13.62,2.57-2.34,7.28-3.51,14.11-3.51h41.13c6.92,0,11.65,1.19,14.18,3.58,2.53,2.39,3.79,7,3.79,13.83l-14.88,3.51v-8.28h-47.44v15.58h45.2c6.83,0,11.56,1.17,14.18,3.51,2.62,2.34,3.93,6.88,3.93,13.62v9.97Z"/><path class="cls-2" d="m221.56,123.41h-16.84V50.98h16.84v72.43Z"/><path class="cls-2" d="m314.28,123.41h-71.17V50.98h16.84v58.81h54.32v13.62Z"/><path class="cls-2" d="m392.47,50.98l-39.86,72.43h-11.65l-41.83-72.43h19.23l29.34,52.36,27.93-52.36h16.84Z"/><path class="cls-2" d="m480.06,123.41h-74.82V50.98h74.11v12.35h-57.27v16.14h33.41v12.35h-33.41v17.97h57.97v13.62Z"/><path class="cls-2" d="m581.96,123.41h-24.14l-29.2-27.37h-16v27.37h-16.56V50.98h62.04c10.85,0,16.28,4.68,16.28,14.04v16.98c0,7.02-2.81,11.37-8.42,13.05-2.15.66-7.96.98-17.41.98l33.41,27.37Zm-23.86-45.48v-8.7c0-2.43-.7-4.02-2.11-4.77-1.03-.65-2.86-.98-5.47-.98h-37.9v20.21h37.9c2.62,0,4.44-.33,5.47-.98,1.4-.75,2.11-2.34,2.11-4.77Z"/><path class="cls-2" d="m671.34,63.61h-56.43v19.09h30.46v13.19h-30.46v27.51h-16.84V50.98h73.27v12.63Z"/><path class="cls-2" d="m775.31,106.28c0,6.74-1.29,11.28-3.86,13.62-2.58,2.34-7.28,3.51-14.11,3.51h-53.34c-6.83,0-11.53-1.17-14.11-3.51-2.58-2.34-3.86-6.88-3.86-13.62v-38.18c0-6.74,1.28-11.28,3.86-13.62,2.57-2.34,7.28-3.51,14.11-3.51h53.34c6.83,0,11.53,1.17,14.11,3.51,2.57,2.34,3.86,6.88,3.86,13.62v38.18Zm-16.84,3.51v-45.9h-55.59v45.9h55.59Z"/><path class="cls-2" d="m881.75,123.41h-22.88l-26.53-28.07-24.42,28.07h-19.93l34.39-37.2-34.95-35.23h22.32l23.16,24.57,22.04-24.57h19.37l-31.58,33.27,39.02,39.16Z"/><path class="cls-1" d="m363,177.56h-5.87v-16.98c0-.6.07-1.53.21-2.8-.32.67-.85,1.62-1.59,2.86l-10.27,13.65h-1.27l-10.27-13.7c-.74-.99-1.29-1.92-1.64-2.8.11,1.09.16,1.99.16,2.7v17.09h-5.13v-27.3h5.13l12.86,16.51,12.59-16.51h5.08v27.3Z"/><path class="cls-1" d="m405.8,177.56h-7.14l-3.28-5.98h-17.3l-3.17,5.98h-6.35l15.45-27.3h6.14l15.66,27.3Zm-13.07-10.9l-5.87-11.11-6.08,11.11h11.96Z"/><path class="cls-1" d="m444.37,177.56h-9.1l-11.01-10.32h-6.03v10.32h-6.24v-27.3h23.39c4.09,0,6.14,1.76,6.14,5.29v6.4c0,2.65-1.06,4.29-3.17,4.92-.81.25-3,.37-6.56.37l12.59,10.32Zm-8.99-17.14v-3.28c0-.92-.26-1.52-.79-1.8-.39-.25-1.08-.37-2.06-.37h-14.29v7.62h14.29c.99,0,1.68-.12,2.06-.37.53-.28.79-.88.79-1.8Z"/><path class="cls-1" d="m484.8,177.56h-10.21l-16.35-12.01v12.01h-6.4v-27.3h6.4v11.38l15.13-11.38h9.21l-18.09,12.86,20.32,14.44Z"/><path class="cls-1" d="m519.45,177.56h-28.2v-27.3h27.94v4.66h-21.59v6.08h12.59v4.66h-12.59v6.77h21.85v5.13Z"/><path class="cls-1" d="m553.9,155.13h-12.59v22.43h-6.35v-22.43h-12.54v-4.87h31.48v4.87Z"/><path class="cls-1" d="m565.43,177.56h-6.35v-27.3h6.35v27.3Z"/><path class="cls-1" d="m608.87,177.56h-4.34l-20.05-16.88c-.85-.71-1.61-1.45-2.28-2.22.18,1.76.26,3.16.26,4.18v14.92h-5.71v-27.3h4.34l19.21,16.08c1.38,1.16,2.42,2.15,3.12,2.96-.18-2.54-.26-4.11-.26-4.71v-14.34h5.71v27.3Z"/><path class="cls-1" d="m651.99,171.1c0,2.54-.49,4.25-1.46,5.13-.97.88-2.74,1.32-5.32,1.32h-18.84c-2.58,0-4.35-.44-5.32-1.32-.97-.88-1.46-2.59-1.46-5.13v-14.39c0-2.54.49-4.25,1.46-5.13s2.74-1.32,5.32-1.32h18.84c2.72,0,4.52.47,5.42,1.4s1.35,2.74,1.35,5.42l-6.19,1.11v-3.07h-19.84v17.3h19.84v-6.08h-10.37v-4.66h16.56v9.42Z"/></g></svg>