<?xml version="1.0" encoding="UTF-8"?><svg id="Layer_2" xmlns="http://www.w3.org/2000/svg" viewBox="0 0 979.33 617.54"><defs><style>.cls-1{fill:#58595a;}.cls-1,.cls-2,.cls-3{stroke-width:0px;}.cls-2{fill:#231f20;}.cls-3{fill:#fff;}</style></defs><g id="Layer_1-2"><rect class="cls-3" width="979.33" height="617.54"/><path class="cls-2" d="m175.6,471.37c0,6.74-1.31,11.28-3.93,13.62-2.62,2.34-7.35,3.51-14.18,3.51h-44.78c-7.39,0-12.26-1.31-14.6-3.93-2.34-2.62-3.51-7.67-3.51-15.16l14.88-3.09v8.56h51.23v-16.56h-45.2c-6.83,0-11.53-1.17-14.11-3.51-2.57-2.34-3.86-6.88-3.86-13.62v-8c0-6.74,1.28-11.28,3.86-13.62,2.57-2.34,7.28-3.51,14.11-3.51h41.13c6.92,0,11.65,1.19,14.18,3.58,2.53,2.39,3.79,7,3.79,13.83l-14.88,3.51v-8.28h-47.44v15.58h45.2c6.83,0,11.56,1.17,14.18,3.51,2.62,2.34,3.93,6.88,3.93,13.62v9.97Z"/><path class="cls-2" d="m218.59,488.5h-16.84v-72.43h16.84v72.43Z"/><path class="cls-2" d="m311.31,488.5h-71.17v-72.43h16.84v58.81h54.32v13.62Z"/><path class="cls-2" d="m389.5,416.07l-39.86,72.43h-11.65l-41.83-72.43h19.23l29.34,52.36,27.93-52.36h16.84Z"/><path class="cls-2" d="m477.09,488.5h-74.82v-72.43h74.11v12.35h-57.27v16.14h33.41v12.35h-33.41v17.97h57.97v13.62Z"/><path class="cls-2" d="m578.99,488.5h-24.14l-29.2-27.37h-16v27.37h-16.56v-72.43h62.04c10.85,0,16.28,4.68,16.28,14.04v16.98c0,7.02-2.81,11.37-8.42,13.05-2.15.66-7.96.98-17.41.98l33.41,27.37Zm-23.86-45.48v-8.7c0-2.43-.7-4.02-2.11-4.77-1.03-.65-2.86-.98-5.47-.98h-37.9v20.21h37.9c2.62,0,4.44-.33,5.47-.98,1.4-.75,2.11-2.34,2.11-4.77Z"/><path class="cls-2" d="m668.37,428.7h-56.43v19.09h30.46v13.19h-30.46v27.51h-16.84v-72.43h73.27v12.63Z"/><path class="cls-2" d="m772.34,471.37c0,6.74-1.29,11.28-3.86,13.62-2.58,2.34-7.28,3.51-14.11,3.51h-53.34c-6.83,0-11.53-1.17-14.11-3.51-2.58-2.34-3.86-6.88-3.86-13.62v-38.18c0-6.74,1.28-11.28,3.86-13.62,2.57-2.34,7.28-3.51,14.11-3.51h53.34c6.83,0,11.53,1.17,14.11,3.51,2.57,2.34,3.86,6.88,3.86,13.62v38.18Zm-16.84,3.51v-45.9h-55.59v45.9h55.59Z"/><path class="cls-2" d="m878.78,488.5h-22.88l-26.53-28.07-24.42,28.07h-19.93l34.39-37.2-34.95-35.23h22.32l23.16,24.57,22.04-24.57h19.37l-31.58,33.27,39.02,39.16Z"/><path class="cls-2" d="m617.52,366.07c3.19,5.86,17.06,10.74,28.69,6.66,11.63-4.08,16.6-15.58,13.41-21.44-3.19-5.86-9.79.39-42.1,14.78Z"/><path class="cls-2" d="m361.8,366.07c-3.19,5.86-17.06,10.74-28.69,6.66-11.63-4.08-16.6-15.58-13.41-21.44,3.19-5.86,9.79.39,42.1,14.78Z"/><path class="cls-1" d="m883.57,241.25l-112.68-77.15-21.32-98.47-132.31,72.77c-37.86-3.13-81.34-4.91-127.59-4.91s-89.73,1.78-127.59,4.91l-132.31-72.77-21.32,98.47-112.68,77.15,130.95,107.6s-37.56-131.97,75.12-105.57c112.68,26.39,187.8,142.12,187.8,142.12l.03-.08.03.08s75.12-115.73,187.8-142.12c112.68-26.39,75.12,105.57,75.12,105.57l130.95-107.6Z"/></g></svg>