<?xml version="1.0" encoding="UTF-8"?><svg id="Layer_2" xmlns="http://www.w3.org/2000/svg" viewBox="0 0 626.95 224.4"><defs><style>.cls-1{fill:#220901;}.cls-1,.cls-2,.cls-3{stroke-width:0px;}.cls-2{fill:#fff;}.cls-3{fill:#fd410d;}</style></defs><g id="Layer_1-2"><rect class="cls-2" width="626.95" height="224.4"/><path class="cls-1" d="m261.89,143.33c-1.91.52-4.39.78-7.46.78-4.39,0-7.66-1.3-9.8-3.9-2.14-2.6-3.21-6.53-3.21-11.79v-46.12c0-.63.38-.95,1.13-.95h13.35c.75,0,1.13.32,1.13.95v44.74c0,1.85.2,3.19.61,4.03.4.84,1.1,1.26,2.08,1.26h1.47c.52,0,.81.29.87.87l1.21,7.46c.12.69.17,1.24.17,1.65,0,.23-.12.42-.35.56-.23.15-.64.3-1.21.48Z"/><path class="cls-1" d="m285.82,144.11c-7.17,0-12.57-1.88-16.21-5.64-3.64-3.76-5.46-9.33-5.46-16.73,0-7.86,1.94-13.93,5.81-18.21,3.87-4.28,9.31-6.42,16.3-6.42s12.57,1.88,16.21,5.64c3.64,3.76,5.46,9.33,5.46,16.73,0,7.92-1.94,14-5.81,18.25-3.87,4.25-9.31,6.37-16.3,6.37Zm.26-12.49c2.08,0,3.61-.84,4.6-2.51.98-1.68,1.47-4.28,1.47-7.8,0-4.16-.48-7.15-1.43-8.97-.95-1.82-2.5-2.73-4.64-2.73s-3.63.84-4.64,2.51c-1.01,1.68-1.52,4.28-1.52,7.8,0,4.1.48,7.08,1.43,8.93.95,1.85,2.53,2.77,4.73,2.77Z"/><path class="cls-1" d="m344.52,140.12c.12.41.19.72.22.95.03.23.04.41.04.52,0,.29-.06.52-.17.69-.12.17-.38.32-.78.43-3.29.92-6.99,1.39-11.1,1.39-5.49,0-9.65-1.18-12.48-3.55-2.83-2.37-4.25-5.84-4.25-10.4v-20.11h-6.24c-.75,0-1.13-.32-1.13-.95v-10.14c0-.63.38-.95,1.13-.95h6.24v-9.19c0-.64.38-.98,1.13-1.04l12.05-1.65c.35-.06.65-.1.91-.13.26-.03.48-.04.65-.04.58,0,.87.32.87.95v11.1h11.62c.75,0,1.13.32,1.13.95v10.14c0,.64-.38.95-1.13.95h-11.62v15c0,2.37.35,4.06,1.04,5.07.69,1.01,1.88,1.52,3.55,1.52.81,0,1.62-.06,2.43-.17.81-.12,1.5-.23,2.08-.35.58-.12.98-.17,1.21-.17.52,0,.81.29.87.87l1.73,8.32Z"/><path class="cls-1" d="m353.97,136.04c.17-.64.49-.95.95-.95.23,0,.56.07,1,.22.43.15.94.28,1.52.39,3.7.92,6.76,1.39,9.19,1.39s4.12-.45,5.42-1.34c1.3-.9,1.95-2.12,1.95-3.68s-.45-2.93-1.34-3.95c-.9-1.01-2.5-2.07-4.81-3.16l-4.85-2.34c-3.18-1.56-5.48-3.29-6.89-5.2-1.42-1.91-2.12-4.28-2.12-7.11,0-3.82,1.36-6.83,4.08-9.06,2.72-2.22,6.42-3.34,11.1-3.34,3.64,0,7.25.49,10.84,1.47.52.17.78.49.78.95,0,.23-.03.46-.09.69-.06.23-.12.46-.17.69l-.87,3.55c-.12.41-.25.67-.39.78-.15.12-.39.17-.74.17-.12,0-.26-.01-.43-.04-.17-.03-.41-.07-.69-.13-.64-.12-1.43-.27-2.38-.48-.95-.2-1.99-.38-3.12-.52-1.13-.14-2.3-.22-3.51-.22-1.85,0-3.31.42-4.38,1.26-1.07.84-1.6,1.98-1.6,3.42s.43,2.56,1.3,3.51c.87.95,2.34,1.92,4.42,2.9l4.51,2.17c3.53,1.68,6.04,3.47,7.54,5.38,1.5,1.91,2.25,4.37,2.25,7.37,0,4.05-1.42,7.25-4.25,9.62-2.83,2.37-6.71,3.55-11.62,3.55-2.31,0-4.75-.22-7.33-.65-2.57-.43-4.5-.91-5.77-1.43-.52-.17-.78-.46-.78-.87,0-.17.03-.38.09-.61.06-.23.12-.43.17-.61l1.04-3.81Z"/><path class="cls-1" d="m415.61,143.24c-.75,0-1.13-.32-1.13-.95v-28.52c0-3.06-.54-5.27-1.6-6.63-1.07-1.36-2.85-2.04-5.33-2.04-1.45,0-3.06.28-4.86.82-1.79.55-3.44,1.26-4.94,2.12v34.25c0,.64-.38.95-1.13.95h-6.16c-.75,0-1.13-.32-1.13-.95v-60c0-.63.38-.95,1.13-.95h6.16c.75,0,1.13.32,1.13.95v19.25c4.45-2.37,8.67-3.55,12.66-3.55s7.21,1.11,9.32,3.34c2.11,2.23,3.16,5.45,3.16,9.67v31.3c0,.64-.38.95-1.13.95h-6.16Z"/><path class="cls-1" d="m464.42,139.08c.23.69.35,1.16.35,1.39,0,.29-.26.55-.78.78-4.57,1.91-9.51,2.86-14.83,2.86-6.3,0-11.05-1.91-14.26-5.72-3.21-3.81-4.81-9.45-4.81-16.91s1.62-13.38,4.85-17.43c3.24-4.05,7.8-6.07,13.7-6.07,5.38,0,9.44,1.76,12.18,5.29,2.74,3.53,4.12,8.73,4.12,15.61,0,1.21-.03,2.1-.09,2.64-.06.55-.19.93-.39,1.13-.2.2-.59.3-1.17.3h-24.28c.17,4.8,1.2,8.34,3.08,10.62,1.88,2.28,4.75,3.42,8.63,3.42,1.39,0,3-.17,4.85-.52,1.85-.35,3.55-.78,5.12-1.3,1.04-.35,1.68-.52,1.91-.52.35,0,.58.23.69.69l1.13,3.73Zm-7.98-22.54c-.12-4.22-.87-7.24-2.25-9.06-1.39-1.82-3.53-2.73-6.42-2.73-5.26,0-8.18,3.93-8.76,11.79h17.43Z"/><path class="cls-1" d="m473.44,143.24c-.75,0-1.13-.32-1.13-.95v-42.48c0-.63.38-.95,1.13-.95h4.6c.35,0,.61.06.78.17.17.12.32.38.43.78l.69,2.25c2.95-1.39,5.35-2.35,7.2-2.91,1.85-.55,3.55-.82,5.12-.82.69,0,1.18.06,1.47.17.29.12.43.38.43.78,0,.17-.02.36-.04.56-.03.2-.07.45-.13.74l-.78,4.68c-.06.64-.52.95-1.39.95-3.81,0-7.51.52-11.1,1.56v34.51c0,.64-.38.95-1.13.95h-6.16Z"/><path class="cls-1" d="m499.62,166.35c-.75,0-1.13-.32-1.13-.95v-65.6c0-.63.38-.95,1.13-.95h4.6c.58,0,.98.32,1.21.95l.69,2.17c2.48-1.56,4.58-2.62,6.29-3.17,1.7-.55,3.42-.82,5.16-.82,5.49,0,9.67,1.85,12.53,5.55,2.86,3.7,4.29,9.08,4.29,16.13,0,7.86-1.66,13.9-4.99,18.12-3.32,4.22-8.08,6.33-14.26,6.33-2.37,0-5.12-.61-8.24-1.82v23.12c0,.63-.38.95-1.13.95h-6.16Zm7.28-31.35c1.21.64,2.56,1.16,4.03,1.56,1.47.41,2.85.61,4.12.61,3.41,0,6.01-1.31,7.8-3.94,1.79-2.63,2.69-6.49,2.69-11.58,0-5.9-.75-10.16-2.25-12.79-1.5-2.63-3.96-3.95-7.37-3.95-1.91.06-3.58.39-5.03,1-1.45.61-2.77,1.29-3.99,2.04v27.05Z"/><path class="cls-1" d="m564.73,143.24c-.35,0-.59-.06-.74-.17-.14-.11-.27-.38-.39-.78l-.87-2.6c-3.93,2.95-8.15,4.42-12.66,4.42-3.7,0-6.59-1.11-8.67-3.34-2.08-2.22-3.12-5.33-3.12-9.32,0-4.51,1.44-8.02,4.33-10.53,2.89-2.51,7.14-3.92,12.75-4.21l6.59-.35v-2.6c0-2.2-.22-3.93-.65-5.2-.43-1.27-1.19-2.2-2.25-2.77-1.07-.58-2.64-.87-4.73-.87-1.68,0-3.28.12-4.81.35-1.53.23-2.85.48-3.94.74-1.1.26-1.79.39-2.08.39-.64,0-.98-.29-1.04-.87l-.52-2.95c-.17-1.04-.26-1.68-.26-1.91,0-.52.29-.87.87-1.04,1.68-.52,3.74-.92,6.2-1.21,2.46-.29,4.9-.43,7.33-.43,4.86,0,8.42,1.01,10.71,3.03,2.28,2.02,3.42,5.2,3.42,9.54v31.73c0,.64-.38.95-1.13.95h-4.33Zm-2.77-20.89l-7.8.52c-2.49.17-4.33.87-5.55,2.08s-1.82,3.01-1.82,5.38c0,4.74,1.96,7.11,5.9,7.11,3,0,6.1-1.16,9.28-3.47v-11.62Z"/><path class="cls-3" d="m219.01,92.45c-5.87,1.26-9.13,2.24-15.41,3.18.03,0,.23,10.24.34,10.17-.76-2.74-1.59-5.51-2.48-8.28-1.26-3.91-2.66-7.89-4.17-11.83-1.51-3.94-3.16-7.92-4.89-11.83-.83-1.86-1.68-3.73-2.56-5.59-1.27-2.67-3.94-4.54-7.05-4.92-2.87-.35-6.36-.77-8.67-.98-11.71-1.11-23.8-1.67-35.93-1.67h-.23c-6.07,0-12.12.14-18.13.42-6,.28-11.95.7-17.8,1.25-2.29.22-5.73.61-8.58.95-3.13.37-5.82,2.24-7.09,4.93-.92,1.94-1.95,4.12-2.61,5.62-1.74,3.91-3.38,7.89-4.89,11.83-1.51,3.94-2.92,7.93-4.18,11.83-.89,2.77-1.72,5.54-2.48,8.28.04.06.31-10.17.34-10.17-6.28-.95-9.54-1.92-15.41-3.18-2.36,10.07,7.26,15.79,14.08,17.03,0,.03-.02.07-.02.1v.06c-2.53,9.73-4.21,19.26-5.03,28.33-.31,3.43-.49,6.83-.55,10.11-.07,3.87.04,7.67.32,11.29h.03c.27,2.06,2.34,3.68,4.85,3.68h12.84c2.69,0,4.88-1.85,4.88-4.13v-6.85c15.84,2.11,32.42,3.19,49.26,3.19h.59c16.85,0,33.42-1.07,49.27-3.19v6.85c0,2.28,2.19,4.13,4.88,4.13h12.84c2.51,0,4.58-1.61,4.85-3.68h.03c.28-3.62.38-7.41.32-11.29-.06-3.28-.25-6.68-.55-10.11-.81-9.07-2.5-18.6-5.01-28.33l-.02-.06s-.01-.06-.02-.09c6.83-1.24,16.44-6.96,14.08-17.03Z"/><path class="cls-2" d="m100.02,73.34c12.36-1.31,25.11-1.97,37.97-1.97h.15c12.86,0,25.62.66,37.97,1.97,1.57.17,2.92,1.16,3.52,2.59,3.5,8.35,6.54,16.78,9.06,25.11v.02c.13.41.25.82.37,1.23.28.94.54,1.86.79,2.74v.04h.02c.51,1.83,1.01,3.66,1.48,5.48.62,2.43-1.03,4.86-3.56,5.21-.01,0-.03,0-.05,0-6.43.91-12.98,1.64-19.62,2.19l2.32,9.36-14.34-8.58c-5.94.29-11.93.44-17.96.44h-.15c-16.97,0-33.65-1.15-49.6-3.4-.02,0-.04,0-.05,0-2.53-.36-4.18-2.79-3.56-5.21.47-1.83.96-3.66,1.48-5.47h.01v-.05c.25-.87.51-1.79.79-2.73.12-.41.24-.82.37-1.23v-.02c2.52-8.32,5.56-16.75,9.06-25.11.6-1.43,1.95-2.42,3.52-2.59Z"/><path class="cls-2" d="m81.05,130.82c1.14-3.29,3.98-5.73,7.41-6.35.57-.1,1.16-.16,1.73-.16,5.34,0,9.68,4.34,9.68,9.68s-4.34,9.68-9.68,9.68c-.58,0-1.17-.05-1.73-.16-4.18-.76-7.42-4.23-7.88-8.46-.04-.35-.06-.7-.06-1.06,0-1.09.18-2.15.53-3.17Z"/><path class="cls-2" d="m195.29,135.05h0c-.46,4.23-3.7,7.71-7.88,8.46-.57.11-1.16.16-1.73.16-5.34,0-9.68-4.34-9.68-9.68s4.34-9.68,9.68-9.68c.58,0,1.17.05,1.73.16,3.43.62,6.27,3.06,7.41,6.35.35,1.02.53,2.08.53,3.17,0,.35-.02.71-.06,1.06Z"/></g></svg>