<?xml version="1.0" encoding="UTF-8"?><svg id="Layer_2" xmlns="http://www.w3.org/2000/svg" viewBox="0 0 626.95 224.4"><defs><style>.cls-1{fill:#220901;}.cls-1,.cls-2,.cls-3{stroke-width:0px;}.cls-2{fill:#fff;}.cls-3{fill:#fd410d;}</style></defs><g id="Layer_1-2"><rect class="cls-3" width="626.95" height="224.4"/><path class="cls-2" d="m123.21,147.95c-2.52.69-5.81,1.03-9.86,1.03-5.81,0-10.13-1.72-12.95-5.16-2.83-3.44-4.24-8.63-4.24-15.59v-60.98c0-.84.5-1.26,1.49-1.26h17.65c.99,0,1.49.42,1.49,1.26v59.15c0,2.45.27,4.22.8,5.33.53,1.11,1.45,1.66,2.75,1.66h1.95c.69,0,1.07.38,1.15,1.15l1.6,9.86c.15.92.23,1.64.23,2.18,0,.31-.15.56-.46.74-.31.19-.84.4-1.6.63Z"/><path class="cls-2" d="m154.84,148.99c-9.48,0-16.62-2.48-21.43-7.45-4.81-4.97-7.22-12.34-7.22-22.12,0-10.39,2.56-18.41,7.68-24.07,5.12-5.65,12.3-8.48,21.55-8.48s16.62,2.48,21.43,7.45c4.81,4.97,7.22,12.34,7.22,22.12,0,10.47-2.56,18.51-7.68,24.13-5.12,5.62-12.3,8.43-21.55,8.43Zm.34-16.51c2.75,0,4.77-1.11,6.08-3.32,1.3-2.22,1.95-5.65,1.95-10.32,0-5.5-.63-9.46-1.89-11.86-1.26-2.41-3.31-3.61-6.13-3.61s-4.8,1.11-6.13,3.32c-1.34,2.22-2.01,5.66-2.01,10.32,0,5.43.63,9.36,1.89,11.81,1.26,2.45,3.34,3.67,6.25,3.67Z"/><path class="cls-2" d="m232.44,143.71c.15.54.25.96.29,1.26.04.31.06.54.06.69,0,.38-.08.69-.23.92-.15.23-.5.42-1.03.57-4.36,1.22-9.25,1.83-14.67,1.83-7.26,0-12.76-1.57-16.51-4.7-3.74-3.13-5.62-7.72-5.62-13.75v-26.59h-8.25c-.99,0-1.49-.42-1.49-1.26v-13.41c0-.84.5-1.26,1.49-1.26h8.25v-12.15c0-.84.5-1.3,1.49-1.37l15.93-2.18c.46-.08.86-.13,1.2-.17.34-.04.63-.06.86-.06.76,0,1.15.42,1.15,1.26v14.67h15.36c.99,0,1.49.42,1.49,1.26v13.41c0,.84-.5,1.26-1.49,1.26h-15.36v19.83c0,3.13.46,5.37,1.38,6.71.92,1.34,2.48,2.01,4.7,2.01,1.07,0,2.14-.07,3.21-.23,1.07-.15,1.99-.3,2.75-.46.76-.15,1.3-.23,1.6-.23.69,0,1.07.38,1.15,1.15l2.29,11Z"/><path class="cls-1" d="m244.93,138.32c.23-.84.65-1.26,1.26-1.26.3,0,.75.1,1.32.29.57.19,1.24.36,2.01.52,4.89,1.22,8.94,1.83,12.15,1.83s5.44-.59,7.16-1.78c1.72-1.18,2.58-2.81,2.58-4.87s-.59-3.88-1.78-5.22c-1.19-1.34-3.31-2.73-6.36-4.18l-6.42-3.09c-4.2-2.06-7.24-4.36-9.11-6.88-1.87-2.52-2.81-5.65-2.81-9.4,0-5.04,1.79-9.04,5.39-11.98,3.59-2.94,8.48-4.41,14.67-4.41,4.81,0,9.59.65,14.33,1.95.69.23,1.03.65,1.03,1.26,0,.31-.04.61-.11.92-.08.31-.15.61-.23.92l-1.15,4.7c-.15.54-.33.88-.52,1.03-.19.15-.52.23-.97.23-.15,0-.34-.02-.57-.06-.23-.04-.54-.09-.92-.17-.84-.15-1.89-.36-3.15-.63-1.26-.27-2.64-.5-4.13-.69-1.49-.19-3.04-.29-4.64-.29-2.45,0-4.38.56-5.79,1.66-1.41,1.11-2.12,2.62-2.12,4.53s.57,3.38,1.72,4.64c1.15,1.26,3.1,2.54,5.85,3.84l5.96,2.87c4.66,2.22,7.98,4.58,9.97,7.11,1.99,2.52,2.98,5.77,2.98,9.74,0,5.35-1.87,9.59-5.62,12.72-3.75,3.13-8.87,4.7-15.36,4.7-3.06,0-6.29-.29-9.69-.86-3.4-.57-5.94-1.2-7.62-1.89-.69-.23-1.03-.61-1.03-1.15,0-.23.04-.5.11-.8.08-.3.15-.57.23-.8l1.38-5.04Z"/><path class="cls-1" d="m326.43,147.84c-.99,0-1.49-.42-1.49-1.26v-37.71c0-4.05-.71-6.97-2.12-8.77-1.41-1.79-3.76-2.69-7.05-2.69-1.91,0-4.05.36-6.42,1.09-2.37.73-4.55,1.66-6.53,2.81v45.27c0,.84-.5,1.26-1.49,1.26h-8.14c-.99,0-1.49-.42-1.49-1.26v-79.32c0-.84.5-1.26,1.49-1.26h8.14c.99,0,1.49.42,1.49,1.26v25.45c5.88-3.13,11.46-4.7,16.73-4.7s9.53,1.47,12.32,4.41c2.79,2.94,4.18,7.2,4.18,12.78v41.38c0,.84-.5,1.26-1.49,1.26h-8.14Z"/><path class="cls-1" d="m390.96,142.34c.3.92.46,1.53.46,1.83,0,.38-.34.73-1.03,1.03-6.04,2.52-12.57,3.78-19.6,3.78-8.33,0-14.61-2.52-18.86-7.57-4.24-5.04-6.36-12.49-6.36-22.35s2.14-17.69,6.42-23.04c4.28-5.35,10.32-8.02,18.11-8.02,7.11,0,12.47,2.33,16.1,6.99,3.63,4.66,5.44,11.54,5.44,20.63,0,1.6-.04,2.77-.11,3.5-.08.73-.25,1.22-.52,1.49-.27.27-.78.4-1.55.4h-32.09c.23,6.34,1.58,11.02,4.07,14.04,2.48,3.02,6.28,4.53,11.41,4.53,1.83,0,3.97-.23,6.42-.69,2.44-.46,4.7-1.03,6.76-1.72,1.37-.46,2.22-.69,2.52-.69.46,0,.76.31.92.92l1.49,4.93Zm-10.55-29.8c-.15-5.58-1.15-9.57-2.98-11.98-1.83-2.41-4.66-3.61-8.48-3.61-6.95,0-10.81,5.2-11.58,15.59h23.04Z"/><path class="cls-1" d="m402.88,147.84c-.99,0-1.49-.42-1.49-1.26v-56.16c0-.84.5-1.26,1.49-1.26h6.08c.46,0,.8.08,1.03.23.23.15.42.5.57,1.03l.92,2.98c3.9-1.83,7.07-3.11,9.51-3.84,2.44-.72,4.7-1.09,6.76-1.09.92,0,1.57.08,1.95.23.38.15.57.5.57,1.03,0,.23-.02.48-.06.74-.04.27-.1.59-.17.97l-1.03,6.19c-.08.84-.69,1.26-1.83,1.26-5.04,0-9.93.69-14.67,2.06v45.62c0,.84-.5,1.26-1.49,1.26h-8.14Z"/><path class="cls-1" d="m437.49,178.4c-.99,0-1.49-.42-1.49-1.26v-86.72c0-.84.5-1.26,1.49-1.26h6.08c.76,0,1.3.42,1.6,1.26l.92,2.87c3.28-2.06,6.06-3.46,8.31-4.18,2.25-.73,4.53-1.09,6.82-1.09,7.26,0,12.78,2.45,16.56,7.34,3.78,4.89,5.67,12,5.67,21.32,0,10.39-2.2,18.38-6.59,23.96-4.4,5.58-10.68,8.37-18.86,8.37-3.13,0-6.76-.8-10.89-2.41v30.56c0,.84-.5,1.26-1.49,1.26h-8.14Zm9.63-41.45c1.6.84,3.38,1.53,5.33,2.06,1.95.54,3.76.8,5.44.8,4.51,0,7.95-1.74,10.32-5.21,2.37-3.48,3.55-8.58,3.55-15.3,0-7.79-.99-13.43-2.98-16.91-1.99-3.48-5.24-5.22-9.74-5.22-2.52.08-4.74.52-6.65,1.32-1.91.8-3.67,1.7-5.27,2.69v35.76Z"/><path class="cls-1" d="m523.57,147.84c-.46,0-.78-.07-.97-.23-.19-.15-.36-.5-.52-1.03l-1.15-3.44c-5.2,3.9-10.77,5.85-16.74,5.85-4.89,0-8.71-1.47-11.46-4.41-2.75-2.94-4.13-7.05-4.13-12.32,0-5.96,1.91-10.6,5.73-13.93,3.82-3.32,9.44-5.18,16.85-5.56l8.71-.46v-3.44c0-2.9-.29-5.2-.86-6.88-.57-1.68-1.57-2.9-2.98-3.67-1.41-.76-3.5-1.15-6.25-1.15-2.22,0-4.34.15-6.36.46-2.03.31-3.76.63-5.22.97-1.45.34-2.37.52-2.75.52-.84,0-1.3-.38-1.38-1.15l-.69-3.9c-.23-1.37-.34-2.22-.34-2.52,0-.69.38-1.15,1.15-1.37,2.22-.69,4.95-1.22,8.2-1.6,3.25-.38,6.48-.57,9.69-.57,6.42,0,11.14,1.34,14.16,4.01,3.02,2.68,4.53,6.88,4.53,12.61v41.95c0,.84-.5,1.26-1.49,1.26h-5.73Zm-3.67-27.62l-10.32.69c-3.29.23-5.73,1.15-7.34,2.75s-2.41,3.97-2.41,7.11c0,6.27,2.6,9.4,7.79,9.4,3.97,0,8.06-1.53,12.27-4.59v-15.36Z"/></g></svg>